<mxfile host="app.diagrams.net" modified="2024-02-26T08:02:02.980Z" agent="Mozilla/5.0 (Macintosh; Intel Mac OS X 10_15_7) AppleWebKit/537.36 (KHTML, like Gecko) Chrome/121.0.0.0 Safari/537.36" version="23.1.6" etag="0s0LiEYoGRJHJQrpaFY6" type="github">
  <diagram name="第 1 页" id="N3g3eYjx2cAfwvjbyYHu">
    <mxGraphModel>
      <root>
        <mxCell id="0" />
        <mxCell id="1" parent="0" />
      </root>
    </mxGraphModel>
  </diagram>
</mxfile>
